<?xml version="1.0" encoding="UTF-8" standalone="no"?>
<!DOCTYPE svg PUBLIC "-//W3C//DTD SVG 1.1//EN" "http://www.w3.org/Graphics/SVG/1.1/DTD/svg11.dtd">
<svg width="100%" height="100%" viewBox="0 0 200 400" version="1.1" xmlns="http://www.w3.org/2000/svg" xmlns:xlink="http://www.w3.org/1999/xlink" xml:space="preserve" xmlns:serif="http://www.serif.com/" style="fill-rule:evenodd;clip-rule:evenodd;stroke-linecap:square;stroke-miterlimit:1.5;">
    <g transform="matrix(1.58523,0,0,2.41289,-27.127,-79.2025)">
        <rect x="17.112" y="32.825" width="126.165" height="165.777" style="fill:rgb(235,229,209);stroke:black;stroke-width:2.45px;"/>
    </g>
    <g transform="matrix(1,0,0,1,50,49.988)">
        <g transform="matrix(1,0,0,1,9.1015,23.5465)">
            <path d="M10.622,68.75C11.918,69.902 12.782,71.198 13.358,72.638C15.518,74.798 14.582,78.254 15.158,78.11L17.534,80.414C17.75,80.702 18.182,80.702 18.614,80.702C21.35,80.702 24.158,79.19 26.822,78.542C28.334,77.822 29.846,77.462 31.358,76.814C34.166,75.518 36.614,73.862 39.206,72.494C41.078,70.982 42.23,68.822 43.67,67.454C43.958,67.31 44.966,64.862 45.254,64.718C45.254,64.718 46.838,61.478 47.558,61.19C47.702,61.19 48.422,61.19 48.854,61.19C50.798,61.19 50.15,64.43 51.158,66.014C51.446,67.742 52.67,69.686 54.614,71.63C54.614,72.926 58.286,75.158 60.374,77.246C61.67,78.254 63.326,80.486 65.558,80.414C65.99,79.982 67.79,78.254 68.222,77.822C68.438,77.678 70.814,76.382 71.462,75.95C72.758,75.23 77.366,75.086 77.942,73.79C77.942,72.926 76.214,72.926 75.566,72.926C75.062,72.926 74.558,73.07 74.054,73.07C72.902,73.07 71.894,72.206 70.166,72.206C67.43,72.206 65.99,70.694 63.83,70.046C62.102,69.254 61.094,68.39 58.934,67.31C57.854,66.806 56.558,66.59 55.91,65.294C55.478,64.43 52.958,62.918 53.318,60.974C54.902,60.974 55.91,60.758 58.07,60.758C62.102,60.758 66.134,60.974 70.598,60.974C70.886,60.974 72.11,59.894 72.11,59.03C72.11,57.518 71.246,56.006 69.95,55.358C69.734,55.358 68.222,54.71 68.006,54.71C67.142,54.494 65.99,53.846 65.99,52.982C65.99,51.902 66.854,51.254 66.854,50.39C66.854,49.094 65.414,48.446 64.55,47.582C64.118,47.15 63.398,45.854 63.254,45.422C63.542,44.486 64.118,43.19 64.118,42.182C64.118,41.462 64.118,40.67 64.118,40.022C64.118,38.15 64.262,36.566 65.846,35.414C65.846,35.414 65.846,35.27 65.846,34.982C65.846,32.822 62.462,32.75 61.094,31.382C57.854,28.142 59.798,28.574 59.366,25.046C59.366,24.038 59.582,22.598 61.094,22.598C63.686,22.598 66.062,23.678 68.654,23.462C69.302,23.318 71.03,21.734 71.03,21.158C71.03,20.006 70.022,19.286 69.086,18.566C69.086,17.414 68.078,17.198 67.79,16.838C64.694,16.838 63.398,19.574 60.374,19.574C59.87,19.574 59.942,18.494 59.942,17.702C59.942,14.39 62.534,14.678 62.534,13.094C62.534,12.23 61.67,12.23 61.094,11.798C59.654,10.862 60.23,10.502 57.35,10.502C57.206,10.502 56.054,9.638 55.91,9.638C55.694,9.638 54.83,9.206 52.886,9.206C52.022,9.206 50.87,9.422 50.87,9.926C50.87,10.862 52.742,12.806 53.318,14.39C53.318,14.678 53.75,17.198 53.75,17.846C53.462,18.998 53.75,20.438 52.454,21.158C51.446,21.158 50.726,20.438 50.438,20.726C49.718,21.014 48.998,20.87 48.278,20.87C47.99,20.87 47.558,21.158 47.414,21.158L41.942,21.158C41.87,21.158 41.294,20.726 41.078,20.438L41.078,16.982C41.366,16.55 41.366,16.406 41.366,15.974C41.366,15.686 41.366,15.254 41.078,15.254C40.79,15.398 40.43,15.47 40.142,15.47C38.342,15.47 37.478,11.798 34.886,11.798C34.382,11.798 33.95,11.798 34.022,12.518C35.03,14.678 35.462,16.982 35.462,19.43C35.462,21.23 33.95,21.302 31.79,21.302C30.566,21.302 29.558,21.446 28.55,20.87C28.55,20.654 28.694,20.294 28.694,20.006C28.694,18.494 27.83,16.91 25.31,15.686C25.094,15.686 24.446,14.822 24.23,14.822C22.07,14.822 21.638,13.526 19.478,13.094C17.966,12.518 16.454,11.366 14.942,10.79C14.654,10.79 13.214,10.07 12.926,10.07C12.062,9.638 11.054,9.206 9.902,9.206C9.902,9.206 9.47,9.206 9.47,9.494C9.902,10.79 13.286,12.23 13.646,12.23C16.886,14.246 19.262,17.27 20.558,20.726C20.558,21.59 21.638,24.182 22.502,24.182L25.094,24.182C25.31,24.182 25.31,24.614 25.31,24.758C25.31,25.622 24.878,26.486 24.662,27.206C24.23,28.934 24.086,31.022 23.366,32.678C22.07,35.846 20.27,39.59 20.342,41.894C20.342,42.902 19.622,43.334 19.694,43.622C19.694,45.062 19.046,45.926 19.046,48.014C19.046,48.23 18.398,49.094 18.398,49.31C18.182,50.174 18.182,51.038 17.966,51.902C17.966,52.118 17.534,53.414 17.534,53.63C17.102,56.006 16.886,58.598 15.806,60.542C15.59,61.622 15.374,64.286 14.942,65.15C14.51,66.014 13.214,65.726 12.494,66.014C11.486,66.014 10.694,66.59 8.462,66.59C8.174,66.59 7.31,67.022 7.166,67.022C5.654,67.022 3.854,67.31 3.854,67.742C3.854,68.174 4.286,68.174 4.574,68.174C5.222,68.174 5.51,67.814 6.014,67.886C6.302,67.886 9.038,68.75 10.622,68.75ZM20.99,69.038C21.206,65.51 21.206,61.622 21.638,57.95C21.638,57.734 22.07,55.79 22.07,55.574C22.502,53.63 22.43,51.47 22.718,49.526C23.222,45.062 23.942,40.454 24.446,36.278C24.446,35.846 24.878,33.686 25.094,33.254C25.526,31.526 25.958,29.798 26.39,28.07C26.822,26.486 27.254,25.478 27.254,23.75C27.254,23.318 27.038,22.886 27.038,22.454C27.254,22.166 27.398,22.022 27.686,22.022C28.118,22.454 28.55,23.03 29.198,23.03C30.926,23.03 32.582,22.886 34.598,22.886C35.822,23.822 35.894,26.702 35.894,27.926C35.894,29.078 36.254,35.918 35.03,34.982C34.886,34.982 33.59,34.55 33.302,34.55C32.726,34.478 32.726,34.91 32.726,35.414C32.726,35.846 32.726,36.278 32.87,36.71C32.87,37.214 32.87,37.646 32.87,38.15C32.87,41.534 33.302,44.99 33.59,48.446C33.734,49.094 34.454,49.526 35.03,49.526C38.342,49.526 36.758,45.422 38.342,45.422L41.078,45.422C42.23,45.422 42.23,47.798 42.23,48.23C42.23,49.094 42.23,50.822 41.366,51.47C37.478,51.47 35.246,51.686 31.79,51.686C31.358,51.902 30.926,51.902 30.278,51.902C29.198,51.902 28.118,51.686 26.822,51.686C26.39,51.686 26.174,51.686 26.174,52.118C26.174,54.926 28.262,54.494 30.278,54.494C33.446,54.278 36.326,53.846 39.35,53.846C40.502,53.846 41.366,53.918 41.366,55.358C41.366,56.654 41.078,58.166 40.07,59.03C37.19,59.03 32.15,58.814 27.47,58.814C26.822,58.814 25.742,58.382 25.094,58.382C24.662,58.382 24.014,58.382 24.014,58.814C24.014,60.326 26.246,63.998 27.038,63.134C27.11,63.206 30.998,62.342 32.006,62.27C34.166,62.27 34.886,61.838 37.046,61.838C37.622,61.838 39.134,62.126 38.774,63.134C38.342,64.862 37.046,66.59 36.182,68.174C35.606,68.246 30.926,74.222 30.062,74.222C29.63,74.654 29.126,75.086 28.55,75.086C28.478,75.086 28.406,75.086 28.334,75.086C25.958,77.39 24.878,77.39 22.934,78.542C21.566,78.542 21.854,76.094 21.638,75.95C21.638,74.222 20.99,73.358 20.99,69.038ZM47.99,57.734C47.99,56.294 48.206,53.414 49.286,53.414C49.862,53.414 52.454,52.982 52.886,52.982C54.254,52.982 61.598,52.766 62.822,52.766C63.47,52.766 64.262,52.838 64.262,53.414C64.262,55.574 58.718,57.446 56.486,58.598C54.398,58.598 51.446,58.886 51.59,58.814C51.014,58.814 48.35,58.67 48.278,58.598L47.99,58.382C47.99,58.382 47.99,57.95 47.99,57.734ZM48.854,48.878C48.854,48.662 49.142,44.774 50.006,44.774L56.486,44.774C58.07,44.774 58.07,46.502 58.07,47.582C58.07,48.23 57.638,49.31 57.206,49.958C54.47,50.246 52.31,50.606 49.574,50.606C48.854,50.39 48.854,49.526 48.854,48.878ZM36.758,40.454C36.758,39.59 36.758,38.726 37.478,38.294C38.054,38.294 40.79,38.006 40.646,38.006C41.798,38.006 42.374,38.366 42.23,40.166C42.23,40.598 41.942,42.614 41.942,43.046C41.51,43.622 40.07,43.91 39.35,43.91C38.486,43.19 36.758,44.414 36.758,41.174C36.758,40.958 36.758,40.67 36.758,40.454ZM53.75,37.142C55.55,37.142 56.918,36.998 56.918,39.302C56.918,45.062 54.398,42.686 51.59,43.622C51.158,43.622 49.574,43.478 49.574,43.046L49.574,38.87C49.574,36.998 52.454,37.142 53.75,37.142ZM4.142,26.486C4.142,27.494 6.446,28.502 7.166,28.934C10.766,32.102 12.134,35.342 13.646,38.726C14.51,38.87 15.734,40.022 17.102,40.022C18.542,40.022 20.99,37.574 20.99,36.998C20.774,35.054 19.766,33.326 18.182,32.39C17.318,31.958 16.454,32.246 15.806,31.526C15.158,30.95 15.374,29.222 14.222,28.934L9.47,27.926C9.038,27.926 8.102,26.918 6.878,26.918C6.014,26.774 5.582,26.054 4.574,26.054C4.286,26.054 4.142,26.342 4.142,26.486ZM38.342,35.27C38.342,34.982 38.846,34.478 39.206,33.974C40.07,32.678 40.07,31.094 41.942,31.094C42.734,31.67 42.806,32.39 42.806,33.182C42.806,34.982 43.094,36.566 41.366,36.566C39.638,36.566 38.342,36.278 38.342,35.27ZM49.862,34.118C49.862,33.542 52.022,31.526 52.454,31.526C53.03,31.526 53.03,32.678 53.03,33.11C53.03,33.974 53.174,35.414 51.59,35.414C50.582,35.414 49.934,35.342 49.862,34.118ZM40.07,27.638L40.07,27.494C40.07,25.19 40.43,22.742 41.798,22.598L49.286,22.166C50.798,22.814 53.75,21.59 53.03,25.19C53.03,26.27 52.598,27.494 52.598,28.502C52.022,30.374 48.278,29.798 47.126,29.798L46.262,30.086C45.686,29.87 45.398,29.798 44.822,29.798C44.318,29.798 44.03,30.158 43.526,30.086C41.366,29.798 40.646,29.798 40.07,27.638Z" style="fill:rgb(63,63,63);fill-rule:nonzero;"/>
        </g>
        <g transform="matrix(1,0,0,1,8.9935,3.55046)">
            <path d="M28.118,171.758C28.118,172.91 32.366,173.27 33.59,175.934C34.238,177.446 34.814,181.118 37.19,181.118C39.998,181.118 43.166,177.014 43.67,175.646C44.606,174.35 44.822,168.23 44.822,164.414C44.822,158.222 44.966,156.422 46.118,156.422C54.47,156.422 60.302,156.206 67.502,158.366C67.862,158.798 70.526,156.926 70.958,155.774C70.958,154.694 65.486,149.942 65.126,149.726C64.622,149.078 63.974,149.078 64.046,149.078C63.182,149.078 58.862,153.398 59.294,152.75C57.71,152.75 50.078,152.966 49.286,152.966C47.774,152.966 44.39,153.182 44.39,151.454C44.39,149.726 45.038,148.214 44.966,146.486C44.75,146.198 43.958,145.478 43.958,145.19C43.958,143.966 49.142,142.166 51.95,140.438C53.174,139.646 55.262,138.854 54.974,137.846C53.03,135.686 50.87,133.67 48.71,131.942C48.278,131.654 47.774,131.798 47.558,131.798C46.046,133.31 43.598,135.686 43.094,135.686C37.262,135.686 31.574,135.47 25.742,134.966C24.518,134.894 24.23,135.038 24.23,135.83C24.23,137.63 25.31,140.87 25.742,140.87C26.75,140.87 27.758,140.438 28.982,140.438C32.222,140.438 35.462,139.286 36.614,139.286C38.99,139.286 40.574,139.142 43.238,139.142C43.526,139.214 43.886,139.286 43.67,139.574C43.67,140.582 42.23,143.03 40.934,143.03C39.35,143.03 38.486,141.302 37.046,141.302C36.542,141.302 36.614,141.518 36.614,142.598C36.614,142.742 37.046,143.606 37.046,143.894C37.838,146.99 37.91,149.798 37.91,152.534C37.91,153.83 34.094,153.398 32.438,153.398C27.182,153.398 24.734,153.182 9.758,153.182C9.038,153.398 9.038,153.614 9.038,154.046C9.038,156.494 10.19,160.958 11.486,160.094C11.918,160.094 14.942,159.23 15.374,159.23C16.454,159.23 17.678,158.798 18.398,158.798L33.302,157.07L37.478,157.07C38.342,157.07 38.342,161.39 38.342,162.47C38.342,167.798 38.414,171.758 34.022,171.758C31.862,171.758 30.134,171.614 28.334,171.614L28.118,171.758ZM11.63,137.414C11.63,138.854 12.926,140.006 14.51,140.006C15.158,140.006 16.022,139.574 16.67,139.142C19.91,137.126 22.286,134.174 22.286,130.214C22.286,130.07 22.718,129.638 22.934,129.638C31.574,129.206 40.214,128.918 48.854,128.486C49.574,128.486 55.55,128.63 59.078,128.63C59.942,128.63 60.302,129.422 60.158,130.214C60.158,130.934 59.15,133.166 58.646,134.39C58.646,134.39 58.862,134.966 59.078,134.966L60.59,134.966C64.478,134.39 68.654,133.67 72.542,133.238C72.974,133.094 72.974,132.662 72.974,132.374C72.974,130.142 70.094,126.614 69.662,126.326C69.446,126.038 66.35,123.374 65.774,123.014C65.27,122.582 65.342,122.582 64.478,122.582L61.886,125.03C60.734,125.462 59.438,125.534 58.214,125.534C57.35,125.534 56.486,125.462 55.622,125.462C53.102,125.462 51.662,125.606 46.118,125.606C44.966,125.606 44.75,124.958 44.822,124.166C44.822,117.182 46.334,116.102 47.126,114.662C47.126,113.078 39.854,111.35 38.054,111.35C37.694,111.35 33.158,112.502 33.158,113.366C33.158,114.23 34.166,114.374 34.598,114.806C36.83,116.678 36.758,119.846 37.046,122.438C37.046,123.806 36.974,125.894 35.894,125.894C32.294,125.894 26.174,126.326 25.526,126.326C25.526,126.326 20.99,126.326 20.99,125.462C20.99,124.526 17.75,117.974 17.534,117.686C17.102,117.686 16.958,117.974 16.958,118.262C16.958,118.622 17.102,118.982 17.102,119.126C17.102,123.806 17.102,124.094 16.238,128.054C16.238,128.486 16.022,129.35 15.806,129.782C15.374,130.502 14.51,132.662 14.222,132.806C12.062,136.118 11.63,136.622 11.63,137.414Z" style="fill:rgb(63,63,63);fill-rule:nonzero;"/>
        </g>
        <g transform="matrix(1,0,0,1,8.9935,-16.4215)">
            <path d="M43.958,281.678C44.534,282.398 43.67,283.694 45.686,283.694C47.126,283.694 48.278,282.11 49.142,280.814C49.718,279.878 49.574,277.358 50.006,276.782C50.006,274.478 50.222,273.038 50.222,272.606C50.222,272.174 50.006,271.598 50.006,270.878C51.086,270.878 51.518,270.446 53.03,270.446C53.246,271.382 64.622,270.878 69.23,271.31C70.814,271.454 72.254,271.598 73.55,271.598C74.99,271.598 76.142,270.95 76.142,269.438C76.142,267.71 74.702,267.566 73.982,265.838C73.55,265.262 72.254,264.83 71.39,264.83C70.382,264.83 69.95,265.694 69.086,266.27C68.798,266.27 67.934,266.99 67.79,266.99C66.998,266.99 66.422,268.43 65.126,268.43C57.494,268.43 53.03,268.286 50.87,268.286C50.366,267.998 50.15,267.35 50.15,266.63C50.15,264.326 50.438,263.102 50.438,261.086C51.374,260.15 53.174,260.654 57.998,260.654C59.294,260.654 58.646,264.11 59.294,264.542C59.51,264.83 59.942,265.262 59.942,265.262C61.022,264.542 61.598,264.902 62.534,263.966C65.558,260.942 65.558,259.934 66.206,257.198C66.422,256.334 66.638,255.47 66.638,254.606C66.638,253.958 66.422,253.31 66.422,252.662C66.926,252.662 66.566,249.278 66.638,248.126C66.638,247.91 66.422,246.83 66.422,246.614C66.638,244.886 69.23,245.102 69.23,243.806C69.23,242.006 67.214,240.998 65.99,240.998C65.054,240.782 63.614,239.702 62.75,239.702C61.31,240.35 59.51,241.214 57.998,241.862L52.598,241.862C52.31,241.862 51.806,242.222 51.518,242.078C49.286,242.078 50.006,236.678 50.006,236.822C50.222,235.526 51.734,235.382 52.598,234.95C53.03,234.95 53.246,235.094 53.678,235.094C54.11,235.094 54.758,234.95 55.19,234.95C55.406,234.95 55.622,234.95 55.838,235.094L59.726,235.094L60.158,234.95C61.598,234.95 62.606,235.094 64.262,235.094C65.558,235.094 68.654,235.382 68.654,234.086C68.654,232.502 66.854,232.07 65.774,231.494C65.198,231.494 64.478,229.982 64.262,230.63C63.614,230.63 63.038,231.638 62.534,231.638C61.166,232.574 59.726,233.87 57.854,233.87C57.134,233.87 56.414,233.798 55.838,233.798C54.83,233.798 55.118,234.086 51.302,234.086C50.222,233.726 50.438,232.862 50.438,231.638C50.438,230.198 52.166,229.55 51.95,228.47L50.438,226.886C50.438,225.662 58.358,225.806 58.214,225.806C58.718,225.806 59.582,225.59 59.726,225.59C59.726,225.59 60.59,225.806 60.806,225.806C61.382,225.806 63.974,225.59 65.774,225.59C70.094,225.59 70.526,224.582 70.958,223.862C71.39,223.43 72.254,223.214 72.254,222.566C72.254,221.27 71.246,221.27 70.526,220.622C69.662,219.758 69.518,218.894 68.222,218.894C66.422,218.894 65.774,220.19 64.478,221.27C62.894,222.638 61.166,223.502 58.862,223.43C58.43,223.43 54.542,223.214 54.11,223.214C53.03,223.214 50.942,223.718 50.222,224.726C49.718,224.366 49.79,224.222 49.79,223.43C50.438,222.926 50.222,221.27 50.222,220.19L50.438,219.758L50.438,217.382C50.438,216.302 52.166,216.086 52.166,215.006C52.166,213.062 50.222,213.062 48.854,212.63C47.558,212.198 46.982,211.55 45.398,211.55C44.966,211.55 39.782,212.846 39.782,213.71C39.854,213.854 40.286,214.646 41.078,215.222C42.302,216.734 42.374,218.102 42.374,219.758C42.374,221.198 42.374,223.07 41.51,223.646C40.646,223.646 36.758,223.646 35.894,223.646C34.814,223.646 33.086,224.078 32.87,223.862C31.358,223.862 29.846,223.646 28.55,223.646C27.686,223.646 26.822,224.078 25.958,224.078C23.582,224.078 22.07,221.702 19.91,221.702C19.262,221.702 17.75,222.134 17.75,222.998C17.75,223.718 20.198,225.086 20.342,225.374L20.99,225.374C20.99,225.806 20.774,226.022 20.774,226.31C20.774,227.75 21.422,229.046 21.638,230.342C21.638,231.062 21.278,231.566 21.422,232.358C21.422,232.502 21.638,235.094 21.638,235.382C21.638,236.678 21.422,237.686 21.422,238.982C21.422,240.35 21.638,241.502 21.638,242.942C21.638,245.318 20.99,250.934 20.99,253.742C20.99,258.782 20.27,260.366 19.694,262.382C19.694,263.246 18.974,263.894 18.83,264.542C18.398,265.694 18.254,266.99 17.75,267.998C16.382,270.59 14.15,272.606 13.79,273.758C12.422,276.062 10.262,277.502 8.174,279.374C7.022,280.886 5.87,281.606 5.87,282.542C8.03,282.542 9.11,279.95 9.758,279.95C10.622,279.086 11.99,278.51 12.35,278.078C14.51,276.062 16.742,274.19 18.614,271.598C18.83,271.31 19.91,270.302 20.126,270.014C20.558,269.582 21.206,267.422 21.422,267.134C22.574,263.606 24.878,259.934 24.878,255.902C24.878,255.398 24.734,254.894 24.734,254.39C24.734,253.454 24.878,252.446 25.31,251.582C25.31,246.254 26.39,241.214 26.39,235.526C26.39,235.022 26.39,234.59 26.39,234.086C26.39,233.15 26.606,231.998 27.038,231.062C27.038,230.774 26.822,229.91 26.822,229.91C26.822,228.902 27.038,227.606 28.118,227.174C28.406,227.174 28.55,227.174 28.838,227.174C30.782,227.174 32.51,226.742 34.454,226.742C34.814,226.742 35.102,226.742 35.462,226.742L35.75,226.454L36.182,226.742L42.374,226.742C42.374,226.886 43.238,227.318 43.238,227.75C43.238,228.038 44.102,229.046 44.102,229.334C44.102,229.766 44.822,232.934 44.534,233.222C44.534,233.366 44.534,233.582 44.534,233.726C44.534,234.014 44.462,234.158 44.102,234.23C42.158,234.23 40.43,234.59 38.342,235.094C36.974,235.094 36.686,234.95 34.022,234.95C32.654,234.95 28.982,234.878 28.982,235.526C28.982,237.254 31.142,236.75 31.574,236.822C31.934,236.822 34.454,236.678 36.182,236.678C36.326,236.678 38.342,236.246 38.486,236.246C41.726,236.246 44.102,235.814 44.102,235.958C44.822,237.758 44.822,240.134 44.822,241.646C44.822,242.726 41.51,242.726 39.638,242.726C38.414,242.726 36.686,243.59 35.894,243.59C34.094,242.87 33.23,241.862 32.006,241.862C31.07,241.862 30.134,242.366 30.278,243.374C30.494,243.59 31.142,244.238 31.358,244.454C32.078,245.246 31.358,248.342 32.006,247.91C31.646,248.342 31.79,248.054 31.79,249.638C31.79,251.87 32.006,253.886 32.006,255.902C32.006,256.334 32.438,260.51 32.438,260.942C32.438,261.086 32.438,261.23 32.438,261.374C32.438,261.518 32.222,263.966 32.222,264.11C32.078,264.83 32.294,267.134 33.734,267.134C37.19,267.134 35.318,260.942 37.19,260.942L43.67,260.942C44.75,260.942 44.174,263.102 44.966,263.534C44.966,263.678 44.822,264.11 44.534,264.11C44.534,265.55 44.606,267.566 44.102,268.718C43.598,268.862 43.166,268.862 42.662,268.862C42.014,268.862 41.438,268.79 40.934,268.79C40.214,268.79 39.71,268.862 39.206,269.15L33.734,269.15C30.494,270.086 25.886,269.87 21.206,269.87C20.99,269.87 20.99,270.302 20.99,270.446C20.99,271.238 22.142,272.75 22.502,273.038C22.574,273.11 24.014,273.326 24.23,273.326C24.662,273.326 25.742,272.606 26.39,272.606C31.646,272.102 36.614,271.598 42.374,271.598C42.662,271.598 43.238,271.598 43.526,272.03C43.958,275.198 43.958,278.51 43.958,281.678ZM33.158,265.694C33.518,265.694 33.734,265.694 33.734,265.838L33.158,265.838L33.158,265.694ZM36.182,255.902C36.614,254.39 37.622,254.174 38.918,253.958C40.214,253.958 43.526,253.526 43.238,253.526C44.102,253.526 44.534,254.894 44.822,255.47C44.75,255.47 44.102,256.982 44.102,258.062L43.958,258.35C42.878,258.782 41.366,258.782 36.758,258.782C36.326,258.206 36.182,257.846 36.182,255.902ZM50.438,253.526C50.438,253.454 50.87,252.806 51.086,252.662C51.95,252.662 55.838,252.446 56.702,252.446C57.422,252.59 57.998,252.374 58.43,252.662C59.078,254.174 58.862,255.326 58.862,257.198C58.646,257.918 57.782,258.494 57.134,258.494L51.95,258.494C50.438,258.494 50.654,256.91 50.654,255.038C50.654,254.894 50.438,253.742 50.438,253.526ZM36.182,248.774C36.182,244.958 38.126,245.534 42.374,245.534C45.326,245.534 44.966,246.398 44.966,250.286C44.966,250.718 44.03,251.366 43.67,251.366L40.214,251.366C40.214,251.582 39.638,252.014 39.35,252.014C38.702,252.014 38.126,251.294 37.19,251.582C36.254,251.438 36.182,250.502 36.182,249.71C36.182,249.35 36.182,248.99 36.182,248.774ZM52.814,250.718C51.446,250.718 50.438,251.006 50.438,250.07L50.438,245.75C50.654,245.534 51.806,244.886 52.382,244.886L58.214,244.886C58.43,245.03 58.79,245.678 58.862,245.75L58.862,249.638C58.286,250.43 54.47,250.718 52.814,250.718ZM63.398,234.23C63.398,234.446 63.326,234.446 63.326,234.446C63.182,234.446 63.182,234.446 63.182,234.23C63.182,234.158 63.182,234.158 63.326,234.158C63.326,234.158 63.398,234.158 63.398,234.23ZM46.55,213.71C46.622,213.71 46.622,213.782 46.622,213.926C46.622,213.998 46.622,214.142 46.55,214.142C46.334,214.142 46.334,213.998 46.334,213.926C46.334,213.782 46.334,213.71 46.55,213.71Z" style="fill:rgb(63,63,63);fill-rule:nonzero;"/>
        </g>
    </g>
    <g transform="matrix(1.97712,0,0,0.559735,-77.2828,174.601)">
        <g transform="matrix(0.505786,0,0,1.78656,20.2478,-224.737)">
            <path d="M63.76,304.922C65.883,304.922 67.777,305.588 69.442,306.92C71.481,308.544 72.501,310.791 72.501,313.664C72.501,315.745 71.721,317.493 70.16,318.909C68.599,320.324 66.84,321.031 64.884,321.031C62.012,321.031 59.597,320.199 57.641,318.534C55.684,316.869 54.706,314.996 54.706,312.914C54.706,311.041 55.455,309.314 56.954,307.732C58.744,305.859 61.013,304.922 63.76,304.922ZM54.332,303.486C53.249,302.862 52.438,302.362 51.896,301.988C50.606,301.113 49.961,300.51 49.961,300.177C49.961,299.761 50.544,299.552 51.709,299.552C56.704,299.552 60.222,299.438 62.261,299.209C64.301,298.98 65.987,298.553 67.319,297.929C68.193,297.513 68.817,297.242 69.192,297.117C69.567,296.992 69.9,296.93 70.191,296.93C70.94,296.93 71.742,297.221 72.595,297.804C73.448,298.387 73.875,299.032 73.875,299.74C73.875,300.239 73.667,300.676 73.251,301.051C72.834,301.426 72.335,301.613 71.752,301.613C68.755,301.613 66.018,301.748 63.541,302.019C61.065,302.289 59.306,302.716 58.265,303.299C57.225,303.882 56.559,304.173 56.267,304.173C55.851,304.173 55.206,303.944 54.332,303.486ZM57.079,290.249C58.078,290.54 59.452,290.728 61.2,290.811C62.948,290.894 64.738,290.936 66.57,290.936C67.361,290.936 67.912,291.05 68.224,291.279C68.536,291.508 68.693,291.872 68.693,292.372C68.693,293.537 67.964,294.474 66.507,295.182C65.383,295.723 64.155,295.993 62.823,295.993C61.699,295.993 60.929,295.931 60.513,295.806C60.097,295.681 59.431,295.286 58.515,294.62C57.807,294.12 57.079,293.517 56.33,292.809C55.289,291.81 54.769,291.061 54.769,290.561C54.769,290.228 55.081,290.062 55.705,290.062L57.079,290.249ZM69.255,332.146C68.921,331.438 67.652,329.794 65.446,327.213C64.53,326.131 64.072,325.465 64.072,325.215C64.072,324.59 64.696,324.278 65.945,324.278C67.028,324.278 68.38,324.601 70.004,325.246C71.627,325.891 72.439,326.693 72.439,327.65C72.439,327.775 72.397,328.066 72.314,328.524C72.231,328.982 72.189,329.398 72.189,329.773L72.189,331.709C72.189,332.499 72.397,333.03 72.814,333.301C73.23,333.571 74.166,333.707 75.623,333.707C77.58,333.707 79.161,333.561 80.369,333.27C81.576,332.978 82.721,332.708 83.803,332.458L84.615,332.395C85.822,332.395 86.425,332.916 86.425,333.956C86.425,335.247 85.218,336.371 82.804,337.328C80.847,338.119 79.099,338.514 77.559,338.514C76.185,338.514 74.812,338.057 73.438,337.141C71.731,336.017 70.337,334.352 69.255,332.146ZM78.371,286.94C77.663,286.232 77.309,285.649 77.309,285.191C77.309,284.525 78.121,284.192 79.744,284.192C81.16,284.192 82.887,284.806 84.927,286.034C86.966,287.262 87.986,288.522 87.986,289.812C87.986,289.978 87.945,290.332 87.861,290.873C87.778,291.415 87.736,291.893 87.736,292.31L87.736,310.604C88.444,310.604 89.797,310.167 91.795,309.293C92.836,308.835 93.689,308.606 94.355,308.606C95.354,308.606 96.27,308.856 97.102,309.355C97.935,309.855 98.351,310.583 98.351,311.541C98.351,312.04 98.153,312.488 97.758,312.883C97.362,313.279 96.811,313.476 96.103,313.476C95.104,313.476 94.334,313.456 93.793,313.414C91.004,313.206 88.985,313.102 87.736,313.102C87.528,315.266 87.279,316.994 86.987,318.284C86.571,320.199 85.957,321.916 85.145,323.435C84.334,324.955 83.782,325.714 83.491,325.714C83.324,325.714 83.241,325.257 83.241,324.341L82.929,292.622C82.679,291.872 82.055,290.894 81.055,289.687C80.223,288.688 79.328,287.772 78.371,286.94ZM64.072,309.106C62.449,309.106 61.044,309.48 59.857,310.23C58.671,310.979 58.078,311.957 58.078,313.164C58.078,314.246 58.744,315.162 60.076,315.911C61.408,316.661 62.823,317.035 64.322,317.035C65.404,317.035 66.445,316.682 67.444,315.974C68.609,315.141 69.192,314.184 69.192,313.102C69.192,311.936 68.734,310.979 67.818,310.23C66.903,309.48 65.654,309.106 64.072,309.106Z" style="fill:rgb(127,127,127);fill-rule:nonzero;"/>
        </g>
        <g transform="matrix(0.505786,0,0,1.78656,20.2478,-224.737)">
            <path d="M142.246,286.877C141.413,286.128 140.997,285.524 140.997,285.067C140.997,284.484 141.559,284.192 142.683,284.192C144.265,284.192 146.117,284.775 148.24,285.941C150.654,287.273 151.861,288.626 151.861,289.999L151.674,292.185L151.674,315.35C152.34,315.35 153.547,315.017 155.295,314.35C156.295,313.976 157.065,313.789 157.606,313.789C158.563,313.789 159.458,314.038 160.291,314.538C161.123,315.037 161.539,315.724 161.539,316.598C161.539,317.181 161.342,317.691 160.946,318.128C160.551,318.565 160.02,318.784 159.354,318.784C158.397,318.784 157.439,318.721 156.482,318.596C153.61,318.222 152.007,318.034 151.674,318.034C151.674,321.198 151.383,324.278 150.8,327.275C150.217,330.272 149.322,333.436 148.115,336.766C147.99,337.224 147.803,337.64 147.553,338.015C147.511,338.098 147.428,338.223 147.303,338.39C147.22,338.39 147.147,338.223 147.085,337.89C147.022,337.557 146.991,336.995 146.991,336.204L146.554,292.185C146.179,291.352 145.721,290.582 145.18,289.874C144.348,288.792 143.37,287.793 142.246,286.877ZM131.756,303.236C132.006,303.611 132.131,304.006 132.131,304.423C132.131,305.172 131.808,306.025 131.163,306.983C130.518,307.94 129.8,308.793 129.009,309.543C131.798,310.084 133.775,310.542 134.94,310.916C137.022,311.582 138.062,313.039 138.062,315.287C138.062,316.411 137.896,317.285 137.563,317.91C137.23,318.534 136.793,318.846 136.252,318.846C135.877,318.846 135.148,318.18 134.066,316.848C131.444,313.56 129.342,311.541 127.76,310.791C125.304,313.081 122.702,314.996 119.955,316.536C116.5,318.492 113.42,319.47 110.714,319.47L110.464,319.408C110.631,319.283 110.797,319.179 110.964,319.096C111.13,319.013 111.484,318.867 112.025,318.659C114.231,317.785 117.208,315.558 120.954,311.978C124.992,308.107 127.011,305.214 127.011,303.299C127.011,302.841 126.907,302.352 126.698,301.831C126.49,301.311 126.282,300.947 126.074,300.739C124.992,300.739 124.211,300.843 123.733,301.051C123.254,301.259 122.765,301.488 122.265,301.738C121.558,301.738 120.236,301.249 118.3,300.27C116.365,299.292 115.397,298.553 115.397,298.054C115.397,297.679 115.792,297.492 116.583,297.492L117.645,297.492C119.893,297.492 122.015,297.367 124.014,297.117C127.094,296.743 129.487,296.097 131.194,295.182C131.694,294.932 132.266,294.641 132.911,294.308C133.556,293.975 134.149,293.808 134.691,293.808C135.565,293.808 136.449,294.12 137.344,294.745C138.239,295.369 138.687,296.097 138.687,296.93C138.687,298.054 137.5,298.845 135.128,299.303C133.379,299.594 131.631,299.865 129.883,300.114C129.883,300.489 130.091,300.968 130.507,301.55C130.923,302.133 131.34,302.695 131.756,303.236Z" style="fill:rgb(127,127,127);fill-rule:nonzero;"/>
        </g>
        <g transform="matrix(0.505786,0,0,1.78656,20.2478,-224.737)">
            <path d="M190.449,293.621L192.259,293.683C195.506,293.683 198.815,293.496 202.187,293.121C205.559,292.747 207.765,292.33 208.806,291.872C209.846,291.415 210.533,291.123 210.866,290.998C211.74,290.624 212.427,290.436 212.927,290.436C213.718,290.436 214.706,290.998 215.893,292.122C217.079,293.246 217.672,294.183 217.672,294.932C217.672,295.39 217.474,295.952 217.079,296.618C216.683,297.284 216.465,297.721 216.423,297.929C216.382,301.009 216.205,303.861 215.893,306.483C215.58,309.106 214.987,311.291 214.113,313.039C213.072,315.037 212.344,316.036 211.928,316.036C211.844,315.911 211.803,315.828 211.803,315.787C211.678,315.495 211.615,315.245 211.615,315.037L211.491,295.369C209.035,295.369 206.901,295.484 205.091,295.712C203.28,295.941 201.792,296.306 200.626,296.805C199.835,297.263 199.065,297.7 198.316,298.116C197.234,298.699 196.401,298.99 195.818,298.99C194.986,298.99 193.581,298.366 191.604,297.117C189.627,295.869 188.638,294.911 188.638,294.245C188.638,293.829 189.137,293.621 190.136,293.621L190.449,293.621ZM178.086,326.713C177.295,326.172 176.899,325.694 176.899,325.277C176.899,324.819 177.441,324.59 178.523,324.59C179.896,324.59 182.186,324.632 185.391,324.715C188.596,324.799 190.303,324.84 190.511,324.84L198.129,324.778C198.129,321.864 197.588,319.262 196.505,316.973C195.298,315.058 194.091,313.123 192.884,311.166C192.884,310.625 193.279,310.354 194.07,310.354C195.277,310.354 196.838,310.844 198.753,311.822C200.668,312.8 201.625,313.83 201.625,314.912L201.438,317.285L201.438,324.653L202.687,324.653C204.601,324.653 206.693,324.549 208.962,324.341C211.23,324.133 213.593,323.696 216.049,323.03C217.131,322.78 218.026,322.655 218.734,322.655C219.941,322.655 221.21,322.998 222.542,323.685C223.874,324.372 224.54,325.257 224.54,326.339C224.54,326.963 224.259,327.494 223.697,327.931C223.135,328.368 222.417,328.587 221.543,328.587C220.836,328.587 219.358,328.378 217.11,327.962C215.986,327.754 215.07,327.65 214.363,327.65C213.78,327.65 212.843,327.629 211.553,327.588C210.263,327.546 209.284,327.525 208.618,327.525C204.622,327.525 200.751,327.671 197.005,327.962C193.258,328.254 190.719,328.607 189.387,329.024C188.846,329.19 187.951,329.482 186.702,329.898C185.953,330.148 185.412,330.272 185.079,330.272C184.246,330.272 182.727,329.606 180.521,328.274C179.23,327.442 178.419,326.922 178.086,326.713Z" style="fill:rgb(127,127,127);fill-rule:nonzero;"/>
        </g>
    </g>
    <g>
        <g transform="matrix(1,0,0,1,-10.2528,28.9177)">
            <path d="M43.949,66.056C46.709,65.936 48.377,65.696 48.953,65.336C49.313,65.096 49.685,64.976 50.069,64.976C50.453,64.976 51.137,65.318 52.121,66.002C53.105,66.686 53.597,67.238 53.597,67.658C53.597,68.078 53.345,68.552 52.841,69.08C52.601,69.344 52.445,69.74 52.373,70.268C51.917,73.46 51.365,76.148 50.717,78.332C50.069,80.516 49.379,82.232 48.647,83.48C47.915,84.728 47.165,85.658 46.397,86.27C45.629,86.882 45.017,87.188 44.561,87.188C44.033,87.188 43.637,86.798 43.373,86.018C43.109,85.238 42.815,84.56 42.491,83.984C42.167,83.408 41.699,82.664 41.087,81.752C40.475,80.84 40.169,80.276 40.169,80.06C40.169,79.844 40.253,79.736 40.421,79.736C40.733,79.736 41.567,80.132 42.923,80.924C44.279,81.716 45.077,82.112 45.317,82.112C45.557,82.112 45.725,82.058 45.821,81.95C45.917,81.842 46.157,81.362 46.541,80.51C46.925,79.658 47.309,78.584 47.693,77.288C48.077,75.992 48.431,74.432 48.755,72.608C49.079,70.784 49.241,69.464 49.241,68.648C49.241,68.432 49.187,68.306 49.079,68.27C48.971,68.234 48.545,68.216 47.801,68.216C47.057,68.216 45.521,68.3 43.193,68.468C42.017,72.308 40.559,75.482 38.819,77.99C37.079,80.498 35.069,82.514 32.789,84.038C30.509,85.562 28.961,86.324 28.145,86.324C27.785,86.324 27.605,86.204 27.605,85.964C27.605,85.508 28.085,84.932 29.045,84.236C33.869,80.684 37.421,75.524 39.701,68.756C37.277,68.924 35.597,69.152 34.661,69.44C33.725,69.728 33.077,69.872 32.717,69.872C32.021,69.872 31.349,69.398 30.701,68.45C30.053,67.502 29.729,66.866 29.729,66.542C29.729,66.218 29.909,66.056 30.269,66.056C30.629,66.056 31.133,66.164 31.781,66.38C32.429,66.596 33.053,66.704 33.653,66.704L40.457,66.272C41.033,64.04 41.321,62.396 41.321,61.34C41.321,60.98 41.237,60.668 41.069,60.404C40.565,59.54 40.313,58.898 40.313,58.478C40.313,58.058 40.559,57.848 41.051,57.848C41.543,57.848 42.485,58.166 43.877,58.802C45.269,59.438 45.965,60.032 45.965,60.584C45.965,60.848 45.821,61.196 45.533,61.628C45.245,62.06 44.717,63.536 43.949,66.056Z" style="fill:rgb(192,192,192);fill-rule:nonzero;stroke:rgb(191,191,191);stroke-width:1px;stroke-linecap:butt;stroke-linejoin:round;stroke-miterlimit:1.41421;"/>
        </g>
        <g transform="matrix(1,0,0,1,-10.2528,15.9177)">
            <path d="M30.701,107.54C31.469,107.54 32.861,107.804 34.877,108.332C36.893,108.86 38.351,109.532 39.251,110.348C40.151,111.164 40.601,112.292 40.601,113.732C40.601,114.38 40.481,114.89 40.241,115.262C40.001,115.634 39.677,115.82 39.269,115.82C38.645,115.82 37.985,115.4 37.289,114.56C36.017,113.048 34.193,111.476 31.817,109.844C30.521,108.932 29.873,108.284 29.873,107.9C29.873,107.66 30.149,107.54 30.701,107.54ZM55.325,111.464C55.325,112.64 54.041,114.986 51.473,118.502C48.905,122.018 45.659,125.24 41.735,128.168C37.811,131.096 35.357,132.56 34.373,132.56C33.917,132.56 33.485,132.314 33.077,131.822C32.669,131.33 32.231,130.622 31.763,129.698C31.295,128.774 31.061,128.072 31.061,127.592C31.061,127.112 31.295,126.872 31.763,126.872C32.231,126.872 32.741,127.046 33.293,127.394C33.845,127.742 34.289,127.916 34.625,127.916C35.417,127.916 37.181,126.95 39.917,125.018C42.653,123.086 45.089,121.064 47.225,118.952C49.361,116.84 51.185,114.788 52.697,112.796C53.657,111.524 54.401,110.888 54.929,110.888C55.193,110.888 55.325,111.08 55.325,111.464Z" style="fill:rgb(192,192,192);fill-rule:nonzero;stroke:rgb(191,191,191);stroke-width:1px;stroke-linecap:butt;stroke-linejoin:round;stroke-miterlimit:1.41421;"/>
        </g>
        <g transform="matrix(1,0,0,1,-10.2528,33.9177)">
            <path d="M48.917,154.136C49.685,154.136 50.705,154.364 51.977,154.82C53.249,155.276 54.239,155.876 54.947,156.62C55.655,157.364 56.009,157.988 56.009,158.492C56.009,158.996 55.793,159.44 55.361,159.824C54.929,160.208 54.545,160.4 54.209,160.4C53.729,160.4 53.267,160.058 52.823,159.374C52.379,158.69 51.821,158.024 51.149,157.376C50.477,156.728 49.841,156.224 49.241,155.864C48.401,155.336 47.981,154.916 47.981,154.604C47.981,154.292 48.293,154.136 48.917,154.136ZM41.069,160.112C41.069,160.52 40.901,161.096 40.565,161.84C40.229,162.584 39.815,162.956 39.323,162.956C38.831,162.956 38.189,162.476 37.397,161.516C36.293,160.172 34.685,158.828 32.573,157.484C31.589,156.86 31.097,156.374 31.097,156.026C31.097,155.678 31.403,155.504 32.015,155.504C32.627,155.504 33.737,155.732 35.345,156.188C36.953,156.644 38.309,157.238 39.413,157.97C40.517,158.702 41.069,159.416 41.069,160.112ZM45.785,156.872C46.625,156.872 47.885,157.346 49.565,158.294C51.245,159.242 52.085,160.328 52.085,161.552C52.085,161.984 51.947,162.398 51.671,162.794C51.395,163.19 51.041,163.388 50.609,163.388C50.177,163.388 49.745,163.04 49.313,162.344C48.497,160.976 47.513,159.86 46.361,158.996C45.473,158.324 45.029,157.802 45.029,157.43C45.029,157.058 45.281,156.872 45.785,156.872ZM53.453,164.324C53.453,165.404 52.037,167.768 49.205,171.416C46.373,175.064 43.241,178.214 39.809,180.866C36.377,183.518 34.121,184.844 33.041,184.844C32.177,184.844 31.541,184.184 31.133,182.864C30.725,181.544 30.521,180.56 30.521,179.912C30.521,179.264 30.677,178.94 30.989,178.94C31.301,178.94 31.727,179.12 32.267,179.48C32.807,179.84 33.233,180.02 33.545,180.02C34.409,180.02 36.767,178.502 40.619,175.466C44.471,172.43 48.017,168.896 51.257,164.864C51.905,164.048 52.433,163.64 52.841,163.64C53.249,163.64 53.453,163.868 53.453,164.324ZM29.009,164.252C30.161,164.252 31.661,164.468 33.509,164.9C35.357,165.332 36.647,165.962 37.379,166.79C38.111,167.618 38.477,168.392 38.477,169.112C38.477,169.592 38.291,170.06 37.919,170.516C37.547,170.972 37.151,171.2 36.731,171.2C36.311,171.2 35.729,170.84 34.985,170.12C33.281,168.512 31.433,167.216 29.441,166.232C28.241,165.656 27.641,165.164 27.641,164.756C27.641,164.42 28.097,164.252 29.009,164.252Z" style="fill:rgb(192,192,192);fill-rule:nonzero;stroke:rgb(191,191,191);stroke-width:1px;stroke-linecap:butt;stroke-linejoin:round;stroke-miterlimit:1.41421;"/>
        </g>
        <g transform="matrix(1,0,0,1,-10.2528,65.9177)">
            <path d="M45.857,222.332C46.553,218.636 47.063,215.792 47.387,213.8C47.711,211.808 47.873,210.704 47.873,210.488C47.873,210.272 47.621,210.164 47.117,210.164C46.325,210.164 44.081,210.362 40.385,210.758C36.689,211.154 34.217,211.52 32.969,211.856C32.513,211.976 32.153,212.036 31.889,212.036C31.241,212.036 30.509,211.568 29.693,210.632C28.877,209.696 28.469,209.03 28.469,208.634C28.469,208.238 28.715,208.04 29.207,208.04C29.699,208.04 30.245,208.16 30.845,208.4C31.445,208.64 32.069,208.76 32.717,208.76C33.365,208.76 35.663,208.544 39.611,208.112C43.559,207.68 45.803,207.422 46.343,207.338C46.883,207.254 47.357,207.02 47.765,206.636C48.173,206.252 48.659,206.06 49.223,206.06C49.787,206.06 50.609,206.462 51.689,207.266C52.769,208.07 53.309,208.694 53.309,209.138C53.309,209.582 52.949,210.056 52.229,210.56C52.013,210.704 51.827,210.98 51.671,211.388C51.515,211.796 51.239,212.798 50.843,214.394C50.447,215.99 49.865,218.612 49.097,222.26C49.601,222.26 50.015,222.5 50.339,222.98C50.663,223.46 50.825,223.88 50.825,224.24C50.825,224.6 50.657,224.888 50.321,225.104C49.985,225.32 49.553,225.428 49.025,225.428C48.497,225.428 47.963,225.374 47.423,225.266C46.883,225.158 46.127,225.104 45.155,225.104C44.183,225.104 42.395,225.236 39.791,225.5C37.187,225.764 35.387,225.974 34.391,226.13C33.395,226.286 32.645,226.484 32.141,226.724C31.637,226.964 31.217,227.084 30.881,227.084C30.233,227.084 29.507,226.634 28.703,225.734C27.899,224.834 27.497,224.18 27.497,223.772C27.497,223.364 27.797,223.16 28.397,223.16C28.781,223.16 29.219,223.232 29.711,223.376C30.203,223.52 30.653,223.592 31.061,223.592C31.469,223.592 33.593,223.406 37.433,223.034C41.273,222.662 44.081,222.428 45.857,222.332Z" style="fill:rgb(192,192,192);fill-rule:nonzero;stroke:rgb(191,191,191);stroke-width:1px;stroke-linecap:butt;stroke-linejoin:round;stroke-miterlimit:1.41421;"/>
        </g>
    </g>
    <g>
        <g transform="matrix(1,0,0,1,36.195,54.533)">
            <path d="M136.571,34.04C138.508,34.04 139.477,34.54 139.477,35.54C139.477,36.103 138.852,36.447 137.602,36.572C134.539,36.572 129.352,36.947 122.039,37.697C121.477,37.697 121.071,38.353 120.821,39.665C119.258,46.478 117.321,51.822 115.008,55.697C112.508,59.322 110.977,61.134 110.414,61.134C110.227,61.134 110.133,61.009 110.133,60.759C112.883,56.822 115.102,52.165 116.789,46.79C117.852,42.978 118.383,40.572 118.383,39.572C118.383,38.697 118.039,37.697 117.352,36.572C117.352,35.884 117.696,35.54 118.383,35.54C120.008,35.79 121.602,35.915 123.164,35.915C126.477,35.665 130.164,35.134 134.227,34.322C135.039,34.134 135.821,34.04 136.571,34.04ZM133.102,64.322C133.477,64.322 134.133,64.634 135.071,65.259C135.946,66.134 136.383,66.915 136.383,67.603C136.383,68.103 135.977,68.54 135.164,68.915C134.039,69.853 132.539,72.447 130.664,76.697C132.727,76.634 134.571,76.415 136.196,76.04C136.821,76.04 137.602,76.415 138.539,77.165C139.414,78.04 139.852,78.759 139.852,79.322C139.727,79.447 139.539,79.665 139.289,79.978C138.352,80.665 137.571,81.822 136.946,83.447C135.696,86.259 133.164,89.353 129.352,92.728C128.664,92.728 128.289,92.353 128.227,91.603C128.227,91.353 128.758,90.79 129.821,89.915C132.571,86.79 134.571,83.259 135.821,79.322C135.821,78.634 135.102,78.29 133.664,78.29C123.789,78.29 117.977,78.978 116.227,80.353C115.164,80.915 114.414,81.197 113.977,81.197C113.352,81.197 112.977,80.478 112.852,79.04C112.852,78.54 113.727,77.54 115.477,76.04C117.039,74.29 117.821,71.978 117.821,69.103C117.821,68.665 117.227,68.134 116.039,67.509C115.539,67.322 115.289,67.009 115.289,66.572C115.289,66.384 115.633,66.259 116.321,66.197C125.883,65.697 130.977,65.322 131.602,65.072C132.289,64.572 132.789,64.322 133.102,64.322ZM127.758,76.697C130.821,71.322 132.352,68.29 132.352,67.603C132.227,67.165 131.727,66.947 130.852,66.947C124.852,67.009 120.883,67.478 118.946,68.353C119.633,69.415 119.977,70.165 119.977,70.603C119.977,72.665 118.946,75.103 116.883,77.915C120.508,77.228 124.133,76.822 127.758,76.697ZM146.039,57.103C146.414,57.103 146.914,57.447 147.539,58.134C152.164,63.572 154.477,66.447 154.477,66.759C154.477,67.009 154.352,67.134 154.102,67.134C153.664,67.134 150.539,64.978 144.727,60.665C144.164,60.228 143.883,59.79 143.883,59.353C143.883,58.853 144.164,58.29 144.727,57.665C145.164,57.29 145.602,57.103 146.039,57.103Z" style="fill:rgb(191,191,191);fill-rule:nonzero;stroke:rgb(191,191,191);stroke-width:2px;stroke-linecap:round;stroke-linejoin:round;stroke-miterlimit:1.41421;"/>
        </g>
        <g transform="matrix(1,0,0,1,36.195,33.533)">
            <path d="M133.946,156.853C134.758,156.853 135.633,157.04 136.571,157.415C137.258,157.79 137.602,158.228 137.602,158.728C137.039,160.665 136.758,162.54 136.758,164.353C136.508,167.103 135.758,169.853 134.508,172.603C133.758,174.353 132.852,175.228 131.789,175.228C131.289,175.228 130.914,174.79 130.664,173.915C130.227,173.228 129.258,172.29 127.758,171.103C127.758,170.603 127.883,170.353 128.133,170.353C130.008,171.165 131.227,171.572 131.789,171.572C132.477,171.572 133.039,170.728 133.477,169.04C134.039,165.603 134.321,162.759 134.321,160.509C134.321,159.634 133.852,159.165 132.914,159.103C131.602,159.103 129.258,159.322 125.883,159.759C126.383,167.759 126.633,174.822 126.633,180.947C126.633,183.384 126.227,184.603 125.414,184.603C124.414,184.603 123.914,182.884 123.914,179.447C124.102,176.509 124.196,173.072 124.196,169.134L123.633,160.134C121.508,160.447 119.071,160.822 116.321,161.259C115.883,161.259 115.196,161.009 114.258,160.509C113.946,160.322 113.789,160.072 113.789,159.759C113.789,159.509 114.383,159.29 115.571,159.103C125.571,158.103 131.039,157.509 131.977,157.322C132.664,157.009 133.321,156.853 133.946,156.853ZM146.039,149.728C146.414,149.728 146.914,150.072 147.539,150.759C152.164,156.134 154.477,158.978 154.477,159.29C154.477,159.54 154.352,159.665 154.102,159.665C153.664,159.665 150.539,157.54 144.727,153.29C144.164,152.853 143.883,152.384 143.883,151.884C143.883,151.447 144.164,150.915 144.727,150.29C145.164,149.915 145.602,149.728 146.039,149.728Z" style="fill:rgb(191,191,191);fill-rule:nonzero;stroke:rgb(191,191,191);stroke-width:2px;stroke-linecap:round;stroke-linejoin:round;stroke-miterlimit:1.41421;"/>
        </g>
        <g transform="matrix(1,0,0,1,36.195,5.53304)">
            <path d="M136.946,249.478C137.321,249.478 137.914,249.603 138.727,249.853C139.977,250.228 140.602,250.728 140.602,251.353C140.352,252.04 139.727,252.384 138.727,252.384C136.914,252.134 134.758,252.009 132.258,252.009C129.508,252.134 126.821,252.322 124.196,252.572C123.071,255.384 122.508,257.009 122.508,257.447C122.508,258.197 122.883,258.572 123.633,258.572C125.633,258.572 128.321,258.29 131.696,257.728C132.383,257.54 132.852,257.447 133.102,257.447C133.664,257.447 134.289,257.728 134.977,258.29C135.664,258.665 136.008,259.134 136.008,259.697C135.258,261.322 134.696,262.884 134.321,264.384C134.133,266.572 133.196,268.978 131.508,271.603C129.758,274.54 127.914,276.009 125.977,276.009C125.289,276.009 124.821,275.572 124.571,274.697C124.383,273.822 123.477,272.572 121.852,270.947C121.852,270.697 121.977,270.572 122.227,270.572C124.539,271.759 126.039,272.353 126.727,272.353C127.852,272.353 129.071,271.04 130.383,268.415C131.696,265.478 132.352,263.04 132.352,261.103C132.352,260.165 131.758,259.697 130.571,259.697C126.946,259.697 123.539,260.165 120.352,261.103C119.664,261.103 119.164,260.728 118.852,259.978C119.914,258.228 120.883,255.853 121.758,252.853C118.946,253.103 116.289,253.447 113.789,253.884C113.164,253.884 112.508,253.665 111.821,253.228C111.133,252.79 110.789,252.509 110.789,252.384C110.789,251.822 111.289,251.478 112.289,251.353C115.727,251.353 120.446,251.134 126.446,250.697C131.571,250.259 135.071,249.853 136.946,249.478ZM116.321,285.665C116.946,285.665 118.821,286.665 121.946,288.665C123.758,289.915 125.446,291.072 127.008,292.134C128.071,290.884 128.977,289.697 129.727,288.572C131.164,286.322 131.946,284.447 132.071,282.947C132.196,281.947 132.446,281.447 132.821,281.447C133.258,281.447 133.914,281.822 134.789,282.572C135.414,283.322 135.727,283.822 135.727,284.072C135.727,284.634 135.508,285.072 135.071,285.384C134.571,285.822 133.821,286.759 132.821,288.197C131.696,290.009 130.352,291.759 128.789,293.447C135.164,298.134 138.352,301.165 138.352,302.54C138.227,303.603 137.758,304.197 136.946,304.322C136.071,304.322 135.321,303.853 134.696,302.915C132.946,300.665 130.446,298.103 127.196,295.228C124.883,297.54 122.227,299.759 119.227,301.884C115.477,304.009 113.289,305.072 112.664,305.072C112.414,305.072 112.289,304.947 112.289,304.697C117.727,300.947 122.102,297.322 125.414,293.822C122.602,291.384 119.352,288.79 115.664,286.04C115.664,285.79 115.883,285.665 116.321,285.665ZM146.039,273.103C146.414,273.103 146.914,273.447 147.539,274.134C152.164,279.572 154.477,282.447 154.477,282.759C154.477,283.009 154.352,283.134 154.102,283.134C153.664,283.134 150.539,280.978 144.727,276.665C144.164,276.228 143.883,275.79 143.883,275.353C143.883,274.853 144.164,274.29 144.727,273.665C145.164,273.29 145.602,273.103 146.039,273.103Z" style="fill:rgb(191,191,191);fill-rule:nonzero;stroke:rgb(191,191,191);stroke-width:2px;stroke-linecap:round;stroke-linejoin:round;stroke-miterlimit:1.41421;"/>
        </g>
    </g>
    <g transform="matrix(1,0,0,1,9.26628,17.6014)">
        <path d="M8.82,40.967L8.82,6.608L12.546,6.608L12.546,23.647L26.538,6.608L31.601,6.608L19.765,20.53L32.117,40.967L27.195,40.967L17.163,23.577L12.546,29.061L12.546,40.967L8.82,40.967Z" style="fill:rgb(128,128,128);fill-rule:nonzero;stroke:rgb(127,127,127);stroke-width:2px;stroke-linecap:round;stroke-linejoin:round;stroke-miterlimit:1.41421;"/>
        <path d="M32.117,40.967L42.945,6.608L46.952,6.608L58.484,40.967L54.218,40.967L50.937,30.561L39.171,30.561L36.077,40.967L32.117,40.967ZM40.249,26.858L49.788,26.858L46.859,17.342C45.952,14.42 45.288,12.045 44.867,10.217C44.507,12.42 43.999,14.608 43.343,16.78L40.249,26.858Z" style="fill:rgb(128,128,128);fill-rule:nonzero;stroke:rgb(127,127,127);stroke-width:2px;stroke-linecap:round;stroke-linejoin:round;stroke-miterlimit:1.41421;"/>
        <path d="M61.343,40.967L61.343,6.608L65.163,6.608L79.976,33.585L79.976,6.608L83.538,6.608L83.538,40.967L79.718,40.967L64.929,13.967L64.929,40.967L61.343,40.967Z" style="fill:rgb(128,128,128);fill-rule:nonzero;stroke:rgb(127,127,127);stroke-width:2px;stroke-linecap:round;stroke-linejoin:round;stroke-miterlimit:1.41421;"/>
        <path d="M87.874,31.217L91.226,30.655C91.32,33.28 91.726,35.077 92.445,36.045C93.163,37.014 94.156,37.499 95.421,37.499C96.312,37.499 97.097,37.252 97.777,36.76C98.456,36.268 98.913,35.647 99.148,34.897C99.476,33.881 99.64,32.342 99.64,30.28L99.64,6.608L103.367,6.608L103.367,30.022C103.367,34.241 102.675,37.217 101.292,38.952C99.91,40.686 97.96,41.553 95.445,41.553C92.992,41.553 91.163,40.772 89.96,39.21C88.57,37.428 87.874,34.764 87.874,31.217Z" style="fill:rgb(128,128,128);fill-rule:nonzero;stroke:rgb(127,127,127);stroke-width:2px;stroke-linecap:round;stroke-linejoin:round;stroke-miterlimit:1.41421;"/>
        <rect x="110.257" y="6.608" width="3.727" height="34.359" style="fill:rgb(128,128,128);fill-rule:nonzero;stroke:rgb(127,127,127);stroke-width:2px;stroke-linecap:round;stroke-linejoin:round;stroke-miterlimit:1.41421;"/>
        <path d="M120.359,40.967L120.359,6.608L124.085,6.608L124.085,23.647L138.077,6.608L143.14,6.608L131.304,20.53L143.656,40.967L138.734,40.967L128.702,23.577L124.085,29.061L124.085,40.967L120.359,40.967Z" style="fill:rgb(128,128,128);fill-rule:nonzero;stroke:rgb(127,127,127);stroke-width:2px;stroke-linecap:round;stroke-linejoin:round;stroke-miterlimit:1.41421;"/>
        <path d="M145.695,24.233C145.695,18.374 146.984,13.87 149.562,10.721C152.14,7.573 155.351,5.999 159.195,5.999C161.679,5.999 163.945,6.702 165.992,8.108C168.038,9.514 169.66,11.557 170.855,14.237C172.05,16.917 172.648,20.108 172.648,23.811C172.648,28.905 171.492,33.053 169.179,36.256C166.632,39.788 163.296,41.553 159.171,41.553C155.015,41.553 151.671,39.741 149.14,36.116C146.843,32.835 145.695,28.874 145.695,24.233ZM149.538,24.303C149.538,28.538 150.472,31.823 152.339,34.159C154.206,36.495 156.476,37.663 159.148,37.663C161.882,37.663 164.175,36.483 166.027,34.124C167.878,31.764 168.804,28.295 168.804,23.717C168.804,20.764 168.327,18.124 167.374,15.795C166.64,14.014 165.535,12.588 164.058,11.518C162.581,10.448 160.968,9.913 159.218,9.913C156.406,9.913 154.089,11.085 152.269,13.428C150.449,15.772 149.538,19.397 149.538,24.303Z" style="fill:rgb(128,128,128);fill-rule:nonzero;stroke:rgb(127,127,127);stroke-width:2px;stroke-linecap:round;stroke-linejoin:round;stroke-miterlimit:1.41421;"/>
    </g>
</svg>
